<?xml version="1.0" encoding="utf-8"?>
<!-- Generator: Adobe Illustrator 28.0.0, SVG Export Plug-In . SVG Version: 6.00 Build 0)  -->
<svg version="1.1" id="Layer_1" xmlns="http://www.w3.org/2000/svg" xmlns:xlink="http://www.w3.org/1999/xlink" x="0px" y="0px"
	 viewBox="0 0 16 16" style="enable-background:new 0 0 16 16;" xml:space="preserve">
<style type="text/css">
	.st0{fill:#FFCC00;}
	.st1{fill:#D2003C;}
</style>
<g>
	<g>
		<path class="st0" d="M8,11.1c1.7,0,3.1-1.4,3.1-3.1S9.7,4.9,8,4.9C6.3,4.9,5,6.3,5,8S6.3,11.1,8,11.1z"/>
		<path class="st0" d="M7.8,9.4C7.6,9.3,7.6,9.1,7.5,9c0,0-0.1-0.1-0.1-0.1c-0.2-0.4-0.2-0.6-0.3-1c0-0.2-0.2-0.4-0.4-0.6
			C6.7,7.2,6.6,7,6.5,6.9C6.1,6.6,5.9,6.4,5.7,6.3c0,0-0.1-0.1-0.1-0.1h0c0,0,0,0,0,0c-0.1,0-0.1,0-0.2,0c0,0,0,0,0,0
			c-0.2,0-0.3,0.1-0.5,0.2C4.7,6.4,4.5,6.5,4.4,6.5C4.2,6.6,4,6.6,3.9,6.7c0,0,0,0-0.1,0.1c0,0-0.1,0.1-0.1,0.1c0,0-0.1,0-0.1,0
			c-0.1,0-0.1,0-0.2,0C3.3,7,3.2,7.1,3,7.2c0,0,0,0,0,0C2.9,7.3,2.7,7.4,2.6,7.4C2.4,7.4,2.2,7.4,2,7.6C1.8,7.7,1.6,7.9,1.4,8
			C1.3,8,1.3,8,1.2,8C1.2,8,1.1,8,1,7.9C0.9,7.8,0.9,7.7,1,7.6C1,7.4,1.2,7.3,1.3,7.2c0.2-0.1,0.3-0.3,0.3-0.6
			C1.5,6.4,1.2,6.3,1,6.3c-0.1,0-0.1,0-0.1,0c-0.1,0-0.1-0.1-0.1-0.1c0,0-0.1-0.1-0.1-0.1c0,0,0,0,0,0c0,0-0.1,0-0.1,0
			C0.4,6.2,0.4,6.4,0.4,6.5c0,0.2,0.2,0.4,0.5,0.4c0,0,0,0,0.1,0c0,0,0,0,0.1,0C0.9,7,0.7,7.2,0.6,7.3C0.5,7.5,0.4,7.8,0.5,8
			c0.1,0.2,0.3,0.4,0.5,0.4c0,0,0.1,0,0.1,0c0.1,0,0.2,0,0.2,0c0,0,0,0,0.1,0c0,0.2,0,0.3,0.1,0.5c0,0,0,0,0,0.1
			c0,0-0.2,0.1-0.2,0.1c0,0,0,0-0.1,0H1.3c0,0,0,0-0.1,0c-0.1,0-0.1,0.1-0.2,0.2c0,0,0,0.1,0,0.1c0,0.1,0,0.1-0.1,0.2
			c0,0-0.1-0.1-0.1-0.1c0,0-0.1,0-0.1,0c-0.1,0-0.1,0-0.2,0.1c0,0,0,0-0.1,0c-0.1,0-0.1,0.1-0.1,0.1c-0.1,0-0.2,0.1-0.2,0.2
			c0,0,0,0.1,0,0.1c0,0,0,0,0,0.1c0,0,0,0,0,0c0,0,0,0.1,0,0.1c0,0.1,0,0.1,0.1,0.1c0,0,0.2,0.1,0.2,0.1c0,0,0,0,0,0c0,0,0,0,0.1,0
			c0,0,0,0,0,0c0.1,0,0.2,0,0.3,0c0.1,0,0.1,0,0.1,0c0.1,0,0.2-0.2,0.2-0.2c0,0,0,0,0,0c0,0,0,0,0,0c0,0,0,0,0.1,0c0,0,0.1,0,0.1,0
			c0.1,0,0.2-0.1,0.3-0.1c0,0,0.1-0.1,0.1-0.1c0,0,0.1-0.1,0.1-0.1c0,0,0.1,0,0.1,0c0,0,0,0,0.1,0c0.1,0,0.2,0,0.3,0
			c0.1,0,0.2,0,0.3-0.1l0.1,0c0.1,0,0.1-0.1,0.2-0.1c0.1-0.1,0.2-0.2,0.2-0.3l0,0C3,9.3,3,9.2,3,9.2c0,0,0,0,0.1,0
			c0.1,0,0.1,0,0.2,0c0.1,0,0.1,0,0.2,0c0,0,0.1,0,0.1,0c0.1,0,0.3,0.1,0.4,0.1c0.1,0,0.2,0,0.3,0c0,0,0,0,0.1,0c0,0,0,0,0.1,0
			c0,0,0,0-0.1,0c-0.1,0-0.1,0-0.2,0.1c0,0-0.1,0-0.1,0c-0.1,0-0.1,0-0.2,0c0,0,0,0-0.1,0c-0.1,0-0.1,0-0.2,0.1c0,0,0,0.1,0,0.1
			l0.2,0.3c0,0,0.1,0.1,0.1,0.1c0,0,0,0,0,0c0,0,0,0,0,0c0,0,0,0,0.1,0c0,0,0,0,0,0c0,0.1,0.1,0.1,0.1,0.2c0.1,0.1,0.2,0.1,0.3,0.1
			c0,0,0.1,0,0.1-0.1C4.8,10.1,5,10,5.1,10l0.2,0c0.1,0,0.1-0.1,0.2-0.2l0,0c0,0,0.1-0.1,0.1-0.2c0,0,0,0,0,0.1c0,0.1,0,0.3,0.3,0.3
			c0.1,0,0.3-0.1,0.4-0.1c0.1,0,0.3,0,0.4,0C6.9,9.7,7,9.6,7,9.6c0.2,0.2,0.4,0.2,0.6,0.2c0.2,0,0.2-0.1,0.1-0.2
			c0.2,0,0.3-0.1,0.3-0.1C7.9,9.5,7.9,9.5,7.8,9.4L7.8,9.4L7.8,9.4z M5.6,9.3C5.5,9.2,5.5,9.1,5.5,9c0.1,0,0.2-0.1,0.4-0.1
			C5.8,9,5.7,9.1,5.6,9.3C5.6,9.3,5.6,9.3,5.6,9.3z M16,10.1C15.9,10.1,15.9,10,16,10.1c0-0.1,0-0.1,0-0.1c0,0,0-0.1,0-0.1
			c0-0.1-0.1-0.1-0.2-0.2c0,0,0-0.1,0-0.1c-0.1-0.1-0.2-0.2-0.2-0.2c0,0,0,0,0,0c0,0,0,0-0.1,0c-0.1,0-0.1,0-0.2,0.1l0,0
			c0,0,0,0,0,0c0,0,0,0-0.1-0.1c0,0,0-0.1,0-0.1c0-0.1,0-0.1-0.1-0.2C14.9,9,14.8,9,14.7,9h0c0,0-0.1,0-0.1,0c0,0,0-0.1,0-0.1
			c0,0,0-0.1,0-0.1c0-0.1,0-0.3,0-0.4c0,0,0,0,0.1,0c0,0,0,0,0.1,0h0c0.1,0,0.3,0,0.4-0.1c0.2-0.1,0.4-0.3,0.4-0.6
			c0-0.1,0-0.2-0.1-0.3C15.4,7.3,15.2,7.1,15,7c0.1,0,0.2-0.1,0.3-0.1c0.2-0.1,0.3-0.3,0.2-0.6c0-0.1,0-0.2-0.1-0.2c0,0,0,0,0,0
			c0,0-0.1,0-0.1,0.1c0,0,0,0,0,0c-0.1,0.1-0.1,0.1-0.2,0.1c0,0-0.1,0-0.1,0c-0.2,0.1-0.5,0.2-0.5,0.4c0,0.2,0.1,0.4,0.3,0.6
			c0.1,0.1,0.1,0.1,0.2,0.2c0.1,0.1,0.2,0.2,0.2,0.3c0,0-0.1,0.1-0.1,0.1c0,0-0.1,0-0.1,0c-0.2,0-0.3-0.1-0.4-0.2l0,0
			c-0.3-0.2-0.6-0.4-1-0.5c-0.1,0-0.3-0.1-0.4-0.2c0,0-0.1,0-0.1-0.1c-0.1-0.1-0.3-0.1-0.4-0.1c-0.1,0-0.1-0.1-0.2-0.1
			c0,0-0.1-0.1-0.1-0.1c-0.1-0.1-0.3-0.2-0.5-0.2c0,0,0,0-0.1,0c0,0-0.1,0-0.1-0.1c-0.1-0.1-0.1-0.1-0.2-0.2
			c-0.1-0.1-0.3-0.2-0.4-0.2c0,0-0.1,0-0.1,0c-0.1,0-0.2,0.1-0.2,0.1l0,0c-0.1,0.1-0.3,0.3-0.5,0.4C9.6,6.9,9.5,7,9.2,7.3
			c-0.6,0.6-0.4,1.5-0.9,2C8.3,9.5,8.2,9.5,8.2,9.5c-0.1,0-0.1,0.3,0.3,0.2c-0.2,0.1-0.1,0.2,0,0.2c0.2,0,0.4-0.1,0.6-0.3
			c0.1,0.2,0.4,0.1,0.5,0.1c0.1,0,0.3,0.1,0.5,0.1c0.2,0,0.3-0.2,0.3-0.3c0,0,0,0,0,0c0,0.1,0,0.2,0.1,0.3c0,0,0,0,0,0v0
			c0,0,0,0.1,0.1,0.1c0,0,0.1,0,0.1,0c0,0,0,0,0,0c0,0,0,0,0.1,0c0,0,0,0,0,0c0,0,0.1,0.1,0.1,0.1c0.2,0,0.3,0.1,0.5,0.1
			c0,0,0.1,0,0.1,0c0,0,0,0,0,0c0.1,0,0.3-0.2,0.3-0.3c0,0,0,0,0,0c0,0,0,0,0.1,0c0.1-0.1,0.1-0.1,0.2-0.2c0,0,0,0,0-0.1
			c0,0,0-0.1,0-0.1c0,0,0-0.1-0.1-0.1c-0.1,0-0.2,0-0.2,0h-0.1c0,0-0.1,0-0.1,0l0,0c0,0-0.1,0-0.1,0l0,0l0.1-0.1c0,0,0.1,0,0.1,0
			c0.2,0,0.3,0,0.4,0c0.1,0,0.2,0,0.4,0c0,0,0,0,0,0c0,0,0,0,0.1,0c0.1,0,0.1,0,0.2,0c0.1,0,0.2,0,0.2,0c0,0,0,0.1,0,0.1
			c0,0.1,0,0.2,0.1,0.4c0.1,0.1,0.1,0.1,0.2,0.2c0,0,0.1,0,0.1,0.1c0.1,0,0.1,0,0.1,0c0.1,0,0.2,0,0.2,0c0.2,0,0.4,0.1,0.6,0.3
			c0,0,0.1,0,0.1,0c0.1,0,0.1,0,0.2-0.1l0,0c0,0.1,0.1,0.1,0.1,0.2c0.1,0.1,0.2,0.1,0.3,0.1c0,0,0.1,0,0.1,0c0,0,0.1,0,0.1,0
			c0,0,0,0,0.1,0s0.3-0.1,0.3-0.1c0,0,0,0,0,0C16,10.2,16,10.1,16,10.1L16,10.1L16,10.1z M10.5,9.3c-0.1-0.1-0.1-0.2-0.2-0.4
			c0.2,0,0.4,0,0.4,0C10.6,9,10.5,9.2,10.5,9.3z"/>
		<path class="st1" d="M11.6,9.4C11.6,9.4,11.6,9.4,11.6,9.4C11.6,9.4,11.5,9.4,11.6,9.4c-0.1,0-0.1,0-0.1,0c0,0,0,0,0,0
			c0,0,0,0,0,0c0,0,0,0-0.1,0h0l0,0c0,0-0.1,0.1-0.1,0.2c0,0.1,0.1,0.1,0.1,0.1c0,0,0,0,0.1,0c0,0,0.1,0,0.1,0
			C11.6,9.6,11.6,9.5,11.6,9.4C11.6,9.4,11.6,9.4,11.6,9.4C11.6,9.4,11.6,9.4,11.6,9.4z M15.6,9.7c0,0-0.1-0.1-0.1-0.1
			c0,0,0,0-0.1,0l0,0c0,0,0,0,0,0c-0.1,0-0.1,0.1-0.1,0.1c0,0,0,0.1,0.1,0.2l0,0c0,0,0.1,0.1,0.1,0.1c0,0,0.1,0,0.1,0
			C15.6,9.7,15.6,9.7,15.6,9.7C15.6,9.7,15.6,9.7,15.6,9.7z M15.8,10.1C15.8,10.1,15.8,10,15.8,10.1c0-0.1,0-0.1,0-0.1
			c0,0,0-0.1,0-0.1c0,0-0.1-0.1-0.1-0.1c0,0,0,0,0,0c-0.1,0-0.1,0.1-0.1,0.1c0,0.1,0,0.2,0.1,0.3c0,0,0,0.1,0,0.1c0,0,0,0,0,0
			l0.2-0.1C15.9,10.2,15.9,10.2,15.8,10.1C15.9,10.2,15.9,10.1,15.8,10.1C15.8,10.1,15.8,10.1,15.8,10.1z"/>
		<path class="st1" d="M15.5,10.2c0-0.1,0-0.2-0.1-0.3l0,0h0c-0.1,0-0.2-0.1-0.2-0.2c0,0,0,0-0.1-0.1c0,0-0.1-0.1-0.1-0.1
			c0,0-0.1-0.1-0.1-0.1c0,0,0-0.1,0-0.1c0,0,0-0.1,0-0.1c0,0,0,0,0,0c0,0,0-0.1-0.1-0.1c0,0-0.1,0-0.1,0c-0.1,0-0.2,0-0.2-0.1
			c0-0.1,0-0.1,0-0.2c0,0,0,0,0-0.1c0-0.1,0-0.2,0-0.3c0,0,0,0,0,0c0,0,0-0.1,0-0.1c0,0,0,0,0,0c0,0,0,0,0.1,0c0,0,0,0,0,0
			c0,0,0.1,0,0.2,0c0.1,0,0.2,0,0.3-0.1c0.2-0.1,0.3-0.3,0.3-0.5c0-0.2-0.2-0.5-0.4-0.7c0,0,0,0,0,0c0,0-0.1-0.1-0.1-0.1
			c0,0,0.1-0.1,0.1-0.1c0,0,0,0,0,0l0,0c0.1,0,0.1,0,0.2-0.1c0.2-0.1,0.2-0.4,0.2-0.5c0,0,0,0,0,0c0,0,0,0,0,0c0,0,0,0,0,0
			c0,0,0,0,0,0c0,0,0,0-0.1,0.1c-0.1,0-0.1,0.1-0.2,0.1c0,0-0.1,0-0.1,0c-0.2,0.1-0.3,0.2-0.4,0.3c0,0.1,0,0.2,0,0.2
			c0.1,0.1,0.2,0.2,0.2,0.3c0.1,0.1,0.3,0.3,0.3,0.5c0,0.1,0,0.2-0.1,0.3C15,8,14.9,8,14.8,8c-0.1,0-0.2,0-0.3-0.1
			c-0.1-0.1-0.2-0.1-0.3-0.2c-0.2-0.1-0.3-0.2-0.5-0.3c-0.1,0-0.2-0.1-0.3-0.1c-0.1,0-0.3-0.1-0.4-0.1c0,0-0.1,0-0.1-0.1
			c-0.1-0.1-0.2-0.1-0.3-0.2c0,0-0.1,0-0.1,0c-0.1,0-0.1,0-0.2-0.1l-0.1-0.1c-0.1-0.1-0.2-0.1-0.3-0.2c-0.2-0.1-0.3-0.1-0.5-0.2
			c-0.1,0-0.1-0.1-0.1-0.1c0,0-0.1-0.1-0.1-0.1c-0.1-0.1-0.3-0.2-0.4-0.2c0,0,0,0,0,0c-0.1,0-0.2,0.1-0.2,0.1
			c-0.2,0.1-0.3,0.3-0.5,0.4C9.8,6.9,9.6,7.1,9.3,7.3C9.1,7.6,9,7.9,8.9,8.1c0,0,0,0.1,0,0.1c0,0.1,0,0.2-0.1,0.2
			C8.8,8.9,8.6,9.3,8.2,9.6c0,0,0,0.1,0,0.1c0,0,0.2,0.1,0.4-0.1c0.1-0.1,0.2-0.2,0.3-0.4c0,0,0,0,0,0c0,0,0,0,0,0
			c0,0.1,0,0.1-0.1,0.1c0,0-0.1,0.1-0.1,0.1c0,0.1-0.1,0.2-0.2,0.3c0,0,0,0,0,0c0,0,0,0,0,0c0,0,0,0,0.1,0c0.2,0,0.4-0.2,0.5-0.3
			c0,0,0,0,0,0c0,0,0,0,0,0c0,0,0,0,0.1,0c0.1,0,0.1,0.1,0.2,0.1h0c0.1,0,0.2,0,0.2,0c0,0,0,0,0.1,0c0.1,0,0.2,0.1,0.2,0.1
			c0.1,0,0.1,0,0.2,0.1h0c0.1,0,0.1-0.1,0.2-0.1c0,0,0-0.1,0-0.1c0,0,0-0.1,0-0.1c0,0,0,0,0.1,0c0,0,0,0,0.1,0c0,0,0,0,0-0.1
			c0-0.1-0.1-0.1-0.1-0.2c0,0-0.1-0.1-0.1-0.1c0-0.1-0.1-0.1-0.1-0.2C10,8.8,10,8.7,10,8.6c0,0,0,0,0,0c0,0,0,0,0,0
			c0,0,0.1,0,0.1,0.1c0.1,0.1,0.2,0.1,0.3,0.2c0.1,0,0.2,0,0.3,0c0,0,0,0,0-0.1c0-0.1-0.1-0.2-0.1-0.3c0-0.1-0.1-0.3,0-0.5
			c0,0,0,0,0,0c0,0,0,0,0,0c0,0,0,0,0,0l0,0c0,0.2,0,0.4,0.2,0.6c0,0.1,0.1,0.1,0.1,0.1c0,0,0.1,0,0.1,0.1c0,0,0,0.1,0,0.1l-0.2,0.2
			c0,0.1-0.1,0.1-0.1,0.2c0,0.1,0,0.1,0,0.2l0,0c0,0,0,0,0,0c-0.1-0.1-0.1-0.2,0-0.3c0-0.1,0.2-0.2,0.2-0.3c0,0,0,0,0-0.1
			c0,0-0.1-0.1-0.1-0.1c0,0,0,0,0,0c0,0,0,0-0.1,0c0,0,0,0,0,0l-0.2,0.4l0,0c0,0,0,0.1,0,0.1c0,0.1,0,0.1,0,0.2l0,0
			c0,0.1,0,0.1,0.1,0.2c0,0,0,0,0.1,0c0,0,0,0,0,0c0,0,0.1,0,0.1,0c0,0,0.1,0,0.1,0.1c0,0,0,0,0.1,0.1c0.1,0,0.1,0,0.2,0.1
			c0.1,0,0.2,0,0.3,0.1c0,0,0.1,0,0.1,0c0.1,0,0.1,0,0.1-0.1c0.1-0.1,0.1-0.1,0.1-0.2c0-0.1,0-0.1,0.1-0.1c0,0,0,0,0.1,0
			c0,0,0.1-0.1,0.1-0.2c0,0,0,0,0-0.1c0,0,0,0,0,0c0,0,0,0,0,0h0c0,0-0.2,0-0.3,0c-0.1,0-0.1,0.1-0.2,0.2c0,0,0,0.1,0,0.1
			c0,0-0.1,0.1-0.1,0.1c0,0-0.1,0-0.1,0c-0.1,0-0.2-0.1-0.3-0.2c0,0,0-0.1,0-0.1c0.1-0.1,0.1-0.2,0.2-0.2c0.1,0,0.2-0.1,0.3-0.2
			c0,0,0,0,0-0.1c0,0,0-0.1,0.1-0.1c0,0,0,0,0,0c0,0.1,0,0.1,0,0.2c0,0,0,0,0,0l0,0l0,0c0,0,0.1,0,0.1,0c0.1,0,0.2,0,0.3,0
			c0.1,0,0.2,0,0.3,0c0,0,0,0,0,0c0.1,0,0.1,0,0.2,0c0,0,0.1,0,0.1,0c0,0,0,0,0.1,0c0.2,0,0.3-0.1,0.3-0.2c0-0.1,0-0.3,0-0.5
			c0,0,0,0,0,0v0c0,0,0,0,0,0c0,0,0,0,0,0c0.1,0.2,0.1,0.3,0.1,0.5c0,0.1,0.1,0.2,0.2,0.4c0.1,0.2,0.3,0.3,0.5,0.3c0,0,0.1,0,0.1,0
			c0,0,0,0,0.1,0c0.3,0,0.5,0.1,0.6,0.3c0,0,0,0,0,0c0,0,0,0,0,0l0,0c-0.1-0.1-0.3-0.2-0.5-0.3c0,0-0.1,0-0.1,0c-0.1,0-0.1,0-0.2,0
			c-0.1,0-0.1,0-0.1,0c-0.1,0-0.1,0-0.2,0c-0.2-0.1-0.4-0.3-0.4-0.5c0,0,0,0,0,0c0,0,0,0,0,0c0,0,0,0,0,0c0,0,0,0.1,0,0.2
			c0,0.1,0.1,0.3,0.2,0.4c0,0,0,0,0.1,0c0.1,0,0.2,0.1,0.2,0.1c0,0,0,0,0.1,0c0.1,0,0.1,0,0.2,0c0.2,0,0.4,0.1,0.5,0.2
			c0,0,0,0,0.1,0.1c0,0,0.1,0.1,0.1,0.1c0,0,0.1,0,0.1,0c0.1,0,0.1,0,0.1,0c0,0,0,0,0.1,0c0.1,0,0.1,0,0.1,0.1c0,0,0,0.1,0.1,0.1
			c0,0,0.1,0.1,0.2,0.1c0,0,0.1,0,0.1,0C15.5,10.2,15.5,10.2,15.5,10.2C15.5,10.2,15.5,10.2,15.5,10.2L15.5,10.2L15.5,10.2
			L15.5,10.2z M9.7,9.4C9.7,9.4,9.7,9.4,9.7,9.4c-0.1,0-0.1,0-0.1,0c0,0-0.1-0.1-0.1-0.1c0,0,0,0,0,0c0,0,0,0,0,0c0,0,0.1,0,0.1,0.1
			C9.7,9.3,9.7,9.4,9.7,9.4L9.7,9.4L9.7,9.4z M9.8,8.5C9.7,8.5,9.7,8.5,9.8,8.5c-0.1,0-0.1,0-0.1,0c0,0,0,0-0.1,0h0c0,0-0.1,0-0.1,0
			c0,0-0.1,0-0.1,0.1C9.4,8.6,9.3,8.6,9.3,8.7c0,0,0,0,0,0c0,0,0,0.1,0,0.1h0c0,0,0,0,0,0c0,0,0,0,0,0c0,0,0,0,0,0
			c0-0.1,0-0.2,0.1-0.3c0.1,0,0.1-0.1,0.2-0.2c0,0,0-0.1,0.1-0.1c0,0,0,0,0.1,0.1C9.7,8.3,9.7,8.4,9.8,8.5C9.8,8.5,9.8,8.5,9.8,8.5
			L9.8,8.5L9.8,8.5z M10.8,7C10.8,7,10.8,7,10.8,7c-0.2,0.2-0.3,0.2-0.3,0.3c0,0-0.1,0.1-0.1,0.1c0,0,0,0,0,0c0,0,0,0,0,0
			c0,0,0-0.1,0-0.2c0.1-0.1,0.2-0.3,0.3-0.4c0,0,0,0,0.1,0C10.8,6.8,10.8,6.9,10.8,7C10.9,6.9,10.9,7,10.8,7z M4.7,9.6
			C4.7,9.6,4.7,9.5,4.7,9.6c0-0.1,0-0.1,0-0.1c0-0.1,0-0.1-0.1-0.1c-0.1,0-0.2,0-0.3,0c0,0,0,0,0,0c0,0,0,0,0,0.1c0,0,0,0,0,0
			c0,0,0,0.1,0,0.1c0,0.1,0,0.1,0.1,0.1c0,0,0,0,0,0C4.6,9.7,4.7,9.7,4.7,9.6C4.7,9.6,4.7,9.6,4.7,9.6L4.7,9.6z M0.7,9.5L0.7,9.5
			C0.7,9.5,0.7,9.5,0.7,9.5c-0.1,0-0.1,0-0.1,0c0,0-0.1,0.1-0.1,0.1c0,0,0,0,0,0.1c0,0,0,0,0,0c0,0,0,0,0,0.1c0,0,0,0,0.1,0
			c0,0,0,0,0,0C0.7,9.7,0.8,9.6,0.7,9.5C0.8,9.5,0.7,9.5,0.7,9.5z M0.4,9.9c0,0-0.1-0.1-0.1-0.1c0,0,0,0,0,0c0,0-0.1,0.1-0.1,0.1
			c0,0.2,0,0.2-0.1,0.2c0,0,0,0,0,0.1c0,0,0.2,0.1,0.2,0.1h0c0,0,0,0,0.1-0.2C0.4,10,0.4,10,0.4,9.9C0.4,9.9,0.4,9.9,0.4,9.9
			C0.4,9.9,0.4,9.9,0.4,9.9z"/>
		<path class="st1" d="M5.2,9.9c0.1,0,0.1,0,0.2-0.1c0.1-0.1,0.1-0.2,0.2-0.3c0-0.1,0-0.2,0-0.2C5.4,9.1,5.4,9.1,5.3,8.9l0,0l0,0
			c0,0,0,0,0,0c0,0-0.1,0-0.1,0h0c0,0-0.1,0-0.1,0l0,0l0.2,0.4c0,0,0,0.1,0,0.1c0,0-0.1,0.2-0.1,0.2c0,0,0,0,0,0c0,0,0,0,0,0
			c0-0.1,0-0.2,0-0.3C5.2,9.4,5,9.1,5,9l0,0C5,9,5,8.9,5,8.9c0,0,0,0,0,0c0,0,0.1,0,0.1,0c0.1,0,0.2,0,0.2-0.1
			c0.1-0.1,0.1-0.3,0.2-0.5c0,0,0,0,0,0c0,0,0,0,0,0c0,0.2,0,0.4-0.1,0.5c0,0,0,0,0,0c0,0,0,0,0,0c0,0,0.2,0,0.3,0
			c0.1,0,0.2,0,0.2,0c0,0,0,0,0.1,0c0,0,0,0,0,0C6,8.9,5.9,8.9,5.9,9c0,0,0,0-0.1,0.1C5.8,9.2,5.7,9.2,5.7,9.3c0,0,0,0,0,0
			c0,0,0,0,0,0c0,0,0,0,0,0c0,0,0,0,0,0L5.7,9.5c0,0,0,0.1,0,0.2c0,0,0,0,0,0.1c0,0.1,0.1,0.1,0.1,0.1c0.1,0,0.2,0,0.3-0.1
			c0,0,0,0,0,0c0.1,0,0.2-0.1,0.4,0c0.1,0,0.2-0.1,0.3-0.2c0,0,0.1,0,0.1,0.1c0.1,0.1,0.3,0.2,0.5,0.2h0l0,0c0,0,0,0,0,0
			c0,0,0,0,0,0L7.5,9.7C7.4,9.6,7.3,9.5,7.3,9.4c0-0.1-0.1-0.2-0.1-0.3c0,0,0,0,0,0c0,0,0,0,0-0.1c0.1,0,0.2,0.1,0.3,0.3
			c0.1,0.1,0.2,0.2,0.4,0.2c0,0,0,0,0.1,0c0,0,0,0,0,0c0,0,0,0,0,0l-0.1,0C7.6,9.4,7.6,9.3,7.5,9.2c0,0-0.1-0.1-0.1-0.1
			c0,0,0-0.1-0.1-0.1c0,0,0,0-0.1-0.1C7.2,8.6,7.1,8.3,7,7.9c0-0.1,0-0.2-0.1-0.3C6.8,7.4,6.4,7,6.4,7c0,0,0,0,0,0l0,0L5.7,6.4
			C5.6,6.3,5.6,6.3,5.5,6.3c-0.1,0-0.1,0-0.2,0c-0.1,0-0.2,0-0.3,0C5,6.3,4.9,6.4,4.9,6.4C4.8,6.4,4.7,6.5,4.6,6.5
			c-0.1,0-0.1,0.1-0.2,0.1C4.2,6.6,4.1,6.7,4,6.8c0,0-0.1,0.1-0.1,0.1C3.8,7,3.8,7,3.7,7C3.5,7,3.3,7,3.2,7.2
			C3.1,7.3,2.9,7.4,2.8,7.4c-0.1,0-0.1,0-0.2,0c-0.1,0-0.1,0-0.2,0C2.2,7.5,2,7.7,1.9,7.8c0,0-0.1,0.1-0.1,0.1c0,0,0,0,0,0
			C1.6,8,1.4,8.1,1.2,8.1h0C1,8.1,0.9,8,0.8,7.8c0-0.2,0-0.3,0.1-0.4C1,7.3,1.1,7.3,1.2,7.2C1.3,7.1,1.4,7,1.4,7
			c0.1-0.1,0.1-0.3,0-0.4C1.3,6.5,1.1,6.4,1.1,6.4l0,0c0,0,0,0,0,0c0,0-0.1,0-0.1,0c-0.1,0-0.2-0.1-0.3-0.2c0,0.1-0.1,0.1,0,0.2
			c0,0.2,0.2,0.3,0.3,0.4c0,0,0,0,0,0c0,0,0.1,0,0.1,0H1c0,0,0.1,0,0.1,0c0,0,0.1,0,0.1,0.1c0,0,0,0,0,0.1L1.1,7
			C0.9,7.1,0.8,7.2,0.7,7.4C0.6,7.5,0.6,7.8,0.6,7.9c0.1,0.2,0.3,0.4,0.5,0.4c0,0,0.1,0,0.1,0c0.1,0,0.2,0,0.3-0.1c0,0,0,0,0,0
			c0,0,0,0,0,0c0,0,0,0.1,0,0.2c0,0.1,0,0.2,0,0.2c0,0.1,0.1,0.2,0.1,0.2c0,0,0,0,0,0.1c0,0,0,0.1,0,0.1C1.6,9.1,1.5,9.2,1.4,9.2
			c0,0-0.1,0-0.1,0c0,0,0,0,0,0c0,0,0,0,0,0c0,0,0,0.1-0.1,0.2c0,0,0,0.1-0.1,0.1C1,9.6,0.9,9.6,0.9,9.7c0,0,0,0-0.1,0l0,0
			c0,0.1-0.1,0.1-0.1,0.1c0,0-0.1,0-0.1,0h0l0,0c-0.1,0.1-0.1,0.2-0.1,0.3c0,0,0,0,0,0l0,0h0c0,0,0.1,0,0.1,0c0,0,0.1,0,0.1,0
			c0,0,0.1,0,0.1,0c0.1,0,0.1-0.1,0.1-0.1C1,10.1,1,10,1,10c0,0,0,0,0.1,0c0,0,0.1,0,0.1,0c0,0,0,0,0.1,0c0.1,0,0.2-0.1,0.3-0.1
			c0,0,0,0,0.1-0.1c0,0,0.1-0.1,0.1-0.1c0,0,0.1,0,0.2,0c0.1,0,0.2,0,0.2,0c0,0,0.1,0,0.1,0c0.1,0,0.1,0,0.2,0
			c0.1,0,0.1-0.1,0.2-0.1c0,0,0.1,0,0.1,0c0.1,0,0.2-0.2,0.2-0.2c0-0.1,0.1-0.2,0.1-0.2l0,0L2.8,9.1l0,0c0,0-0.1,0.1-0.1,0.2
			C2.5,9.5,2.2,9.5,2,9.5c0,0,0,0-0.1,0c-0.3,0-0.5,0.1-0.7,0.3c0,0,0,0,0,0c0,0,0,0,0,0c0,0,0,0,0-0.1C1.4,9.5,1.7,9.4,2,9.4
			c0.2,0,0.3,0,0.5-0.1c0.2-0.1,0.3-0.3,0.3-0.4c0-0.1,0-0.2,0.1-0.3c0-0.1,0-0.2,0-0.2c0,0,0,0,0,0c0,0,0,0,0,0c0,0,0,0,0,0
			c0,0.1-0.1,0.4,0,0.5C2.9,9,3,9.1,3.1,9.1c0.1,0,0.1,0,0.2,0c0.1,0,0.1,0,0.1,0c0,0,0,0,0.1,0c0.1,0,0.2,0,0.2,0
			c0.1,0,0.1,0,0.2,0c0,0,0,0,0,0c0,0,0.1,0,0.1,0c0.1,0,0.1,0,0.1,0c0,0,0,0,0-0.1l0,0c0,0,0,0,0,0c0,0,0-0.1,0-0.1c0,0,0,0,0,0
			c0,0,0,0,0,0l0,0c0,0.1,0,0.1,0.1,0.2c0.1,0.1,0.2,0.2,0.3,0.3c0.1,0.1,0.2,0.2,0.2,0.3c0,0.1-0.1,0.1-0.1,0.1
			c-0.1,0-0.2,0.1-0.3,0.1c0,0,0,0,0,0c-0.1,0-0.1-0.1-0.2-0.2c0,0-0.1-0.1-0.1-0.1c0-0.1-0.1-0.1-0.2-0.1c-0.1,0-0.1,0-0.2,0
			c0,0,0,0,0,0c0,0,0,0,0,0.1c0,0.1,0.1,0.1,0.1,0.2l0,0c0,0,0,0,0.1,0c0,0,0,0,0,0c0,0,0,0,0,0c0,0,0.1,0,0.1,0c0,0,0,0,0,0.1
			c0,0.1,0.1,0.1,0.1,0.1c0,0,0.1,0.1,0.2,0.1c0,0,0.1,0,0.1,0C4.7,10,4.9,10,5.1,9.9C5.1,9.9,5.2,9.9,5.2,9.9L5.2,9.9L5.2,9.9z
			 M5.5,7.6C5.5,7.6,5.5,7.6,5.5,7.6C5.5,7.6,5.5,7.6,5.5,7.6C5.5,7.4,5.4,7.4,5.4,7.3c0,0,0,0,0-0.1c0,0-0.1-0.1,0-0.1
			c0,0,0,0,0.1,0c0,0,0,0,0,0c0,0,0.1,0.1,0.1,0.1C5.6,7.4,5.5,7.6,5.5,7.6C5.5,7.6,5.5,7.6,5.5,7.6z M6.6,9.3
			C6.6,9.3,6.6,9.4,6.6,9.3C6.6,9.4,6.5,9.4,6.4,9.4c0,0-0.1,0-0.1,0c0,0,0,0,0,0c0,0,0.1-0.1,0.2-0.1c0,0,0,0,0.1,0
			C6.6,9.2,6.6,9.3,6.6,9.3L6.6,9.3L6.6,9.3z M6.9,8.6C6.9,8.7,6.9,8.7,6.9,8.6C6.9,8.7,6.9,8.7,6.9,8.6C6.8,8.7,6.8,8.7,6.9,8.6
			c-0.1,0.1-0.1,0-0.1-0.1c0,0-0.1-0.2-0.2-0.2c0,0-0.1,0-0.1,0.1c0,0,0,0.1,0,0.1c0,0,0,0,0,0c0,0,0,0,0-0.1c0-0.1,0-0.1,0-0.1
			c0,0,0-0.1,0-0.1c0,0,0.1,0,0.1,0c0,0,0,0,0.1,0c0,0.1,0,0.1,0,0.1c0,0,0,0,0.1,0.1c0,0,0.1,0.1,0.1,0.2C6.9,8.6,6.9,8.6,6.9,8.6
			L6.9,8.6L6.9,8.6z"/>
	</g>
</g>
</svg>
